<?xml version="1.0" encoding="utf-8"?>
<!-- created with bpmn-js / http://bpmn.io -->
<!DOCTYPE svg PUBLIC "-//W3C//DTD SVG 1.1//EN" "http://www.w3.org/Graphics/SVG/1.1/DTD/svg11.dtd">
<svg xmlns="http://www.w3.org/2000/svg" xmlns:xlink="http://www.w3.org/1999/xlink" width="1115" height="522" viewBox="117 54 1115 522" version="1.1"><defs><marker viewBox="0 0 20 20" markerWidth="10" markerHeight="10" orient="auto" refX="11" refY="10" id="markerSid7kmyoy9"><path d="M 1 5 L 11 10 L 1 15 Z" fill="#000000" style="stroke-width: 1px; stroke-linecap: round; stroke-dasharray: 10000px, 1px;"/></marker><marker viewBox="0 0 20 20" markerWidth="20" markerHeight="20" orient="auto" refX="6" refY="6" id="markerSid7kmyoyb"><circle cx="6" cy="6" r="3.5" style="stroke-width: 1px; stroke-linecap: round; stroke-dasharray: 10000px, 1px;" fill="#ffffff" stroke="#000000"/></marker><marker viewBox="0 0 20 20" markerWidth="20" markerHeight="20" orient="auto" refX="8.5" refY="5" id="markerSid7kmyoyd"><path d="m 1 5 l 0 -3 l 7 3 l -7 3 z" fill="#ffffff" stroke="#000000" style="stroke-width: 1px; stroke-linecap: butt; stroke-dasharray: 10000px, 1px;"/></marker><marker viewBox="0 0 20 20" markerWidth="10" markerHeight="10" orient="auto" refX="11" refY="10" id="markerSid7kmyoyf"><path d="M 1 5 L 11 10 L 1 15" fill="#ffffff" stroke="#000000" style="stroke-width: 1px; stroke-linecap: round; stroke-dasharray: 10000px, 1px;"/></marker><marker viewBox="0 0 20 20" markerWidth="10" markerHeight="10" orient="auto" refX="-1" refY="10" id="markerSid7kmyoyh"><path d="M 0 10 L 8 6 L 16 10 L 8 14 Z" fill="#ffffff" stroke="#000000" style="stroke-width: 1px; stroke-linecap: round; stroke-dasharray: 10000px, 1px;"/></marker><marker viewBox="0 0 20 20" markerWidth="10" markerHeight="10" orient="auto" refX="-5" refY="10" id="markerSid7kmyoyj"><path d="M 1 4 L 5 16" fill="#000000" stroke="#000000" style="stroke-width: 1px; stroke-linecap: round; stroke-dasharray: 10000px, 1px;"/></marker></defs><g class="djs-group" xmlns="http://www.w3.org/2000/svg"><g data-element-id="Participant_1329sn4" class="djs-element djs-shape hover" transform="matrix(1,0,0,1,123,60)" style="display: block;"><g class="djs-visual"><rect x="0" y="0" width="1103" height="249" rx="0" ry="0" stroke="#000000" style="stroke-width: 2px;" fill="#ffffff"></rect><polyline points="30,0 30,249 " fill="none" stroke="#000000" style="stroke-width: 2px;"></polyline><text class=" djs-label" transform="matrix(0,-1,1,0,0,249)" style="font-family: Arial, sans-serif; font-size: 12px;"><tspan x="124.5" y="15"></tspan></text></g><rect x="0" y="0" width="1103" height="249" fill="none" stroke="#ffffff" style="stroke-opacity: 0; stroke-width: 15px;" class="djs-hit"></rect><rect x="-6" y="-6" width="1115" height="261" fill="none" class="djs-outline"></rect></g><g class="djs-children"><g class="djs-group"><g data-element-id="StartEvent_1" transform="matrix(1,0,0,1,173,102)" class="djs-element djs-shape" style="display: block;"><g class="djs-visual"><circle cx="18" cy="18" r="18" stroke="#000000" fill="#ffffff" style="stroke-width: 2px;"></circle></g><rect x="0" y="0" width="36" height="36" fill="none" stroke="#ffffff" style="stroke-opacity: 0; stroke-width: 15px;" class="djs-hit"></rect><rect x="-6" y="-6" width="48" height="48" fill="none" class="djs-outline"></rect></g></g><g class="djs-group"><g data-element-id="StartEvent_1_label" class="djs-element djs-shape" transform="matrix(1,0,0,1,146,138)" style="display: none;"><g class="djs-visual"><text class=" djs-label" style="font-family: Arial, sans-serif; font-size: 11px;"><tspan x="45" y="0"></tspan></text></g><rect x="0" y="0" width="90" height="20" fill="none" stroke="#ffffff" style="stroke-opacity: 0; stroke-width: 15px;" class="djs-hit"></rect><rect x="-6" y="-6" width="102" height="32" fill="none" class="djs-outline"></rect></g></g><g class="djs-group"><g data-element-id="Task_0ghrw88" class="djs-element djs-shape" transform="matrix(1,0,0,1,260,80)" style="display: block;"><g class="djs-visual"><rect x="0" y="0" width="100" height="80" rx="10" ry="10" stroke="#000000" fill="#ffffff" style="stroke-width: 2px;"></rect><text class=" djs-label" style="font-family: Arial, sans-serif; font-size: 12px;"><tspan x="22.984375" y="29.5">Finaliza el </tspan><tspan x="20.9765625" y="43.5">dictado del </tspan><tspan x="35.328125" y="57.5">curso </tspan></text></g><rect x="0" y="0" width="100" height="80" fill="none" stroke="#ffffff" style="stroke-opacity: 0; stroke-width: 15px;" class="djs-hit"></rect><rect x="-6" y="-6" width="112" height="92" fill="none" class="djs-outline"></rect></g></g><g class="djs-group"><g data-element-id="Task_1tkliv1" class="djs-element djs-shape" transform="matrix(1,0,0,1,408,80)" style="display: block;"><g class="djs-visual"><rect x="0" y="0" width="100" height="80" rx="10" ry="10" stroke="#000000" fill="#ffffff" style="stroke-width: 2px;"></rect><text class=" djs-label" style="font-family: Arial, sans-serif; font-size: 12px;"><tspan x="13.3046875" y="36.5">Recepcion de </tspan><tspan x="35.65625" y="50.5">actas </tspan></text></g><rect x="0" y="0" width="100" height="80" fill="none" stroke="#ffffff" style="stroke-opacity: 0; stroke-width: 15px;" class="djs-hit"></rect><rect x="-6" y="-6" width="112" height="92" fill="none" class="djs-outline"></rect></g></g><g class="djs-group"><g data-element-id="EndEvent_1emf19o" transform="matrix(1,0,0,1,1093,102)" class="djs-element djs-shape" style="display: block;"><g class="djs-visual"><circle cx="18" cy="18" r="18" stroke="#000000" fill="#ffffff" style="stroke-width: 4px;"></circle></g><rect x="0" y="0" width="36" height="36" fill="none" stroke="#ffffff" style="stroke-opacity: 0; stroke-width: 15px;" class="djs-hit"></rect><rect x="-6" y="-6" width="48" height="48" fill="none" class="djs-outline"></rect></g></g><g class="djs-group"><g data-element-id="EndEvent_1emf19o_label" class="djs-element djs-shape" transform="matrix(1,0,0,1,1066,138)" style="display: none;"><g class="djs-visual"><text class=" djs-label" style="font-family: Arial, sans-serif; font-size: 11px;"><tspan x="45" y="0"></tspan></text></g><rect x="0" y="0" width="90" height="20" fill="none" stroke="#ffffff" style="stroke-opacity: 0; stroke-width: 15px;" class="djs-hit"></rect><rect x="-6" y="-6" width="102" height="32" fill="none" class="djs-outline"></rect></g></g><g class="djs-group"><g data-element-id="Task_1f85n0n" class="djs-element djs-shape" transform="matrix(1,0,0,1,934,80)" style="display: block;"><g class="djs-visual"><rect x="0" y="0" width="100" height="80" rx="10" ry="10" stroke="#000000" fill="#ffffff" style="stroke-width: 2px;"></rect><text class=" djs-label" style="font-family: Arial, sans-serif; font-size: 12px;"><tspan x="11.640625" y="36.5">Confeccion de </tspan><tspan x="19.6484375" y="50.5">certificados </tspan></text></g><rect x="0" y="0" width="100" height="80" fill="none" stroke="#ffffff" style="stroke-opacity: 0; stroke-width: 15px;" class="djs-hit"></rect><rect x="-6" y="-6" width="112" height="92" fill="none" class="djs-outline"></rect></g></g><g class="djs-group"><g data-element-id="Task_1obs28s" class="djs-element djs-shape" transform="matrix(1,0,0,1,943,177)" style="display: block;"><g class="djs-visual"><rect x="0" y="0" width="100" height="80" rx="10" ry="10" stroke="#000000" fill="#ffffff" style="stroke-width: 2px;"></rect><text class=" djs-label" style="font-family: Arial, sans-serif; font-size: 12px;"><tspan x="11.640625" y="29.5">Confeccion de </tspan><tspan x="11.3125" y="43.5">certificados de </tspan><tspan x="23.640625" y="57.5">aproacion </tspan></text></g><rect x="0" y="0" width="100" height="80" fill="none" stroke="#ffffff" style="stroke-opacity: 0; stroke-width: 15px;" class="djs-hit"></rect><rect x="-6" y="-6" width="112" height="92" fill="none" class="djs-outline"></rect></g></g><g class="djs-group"><g data-element-id="Task_059k5r4" class="djs-element djs-shape" transform="matrix(1,0,0,1,533,80)" style="display: block;"><g class="djs-visual"><rect x="0" y="0" width="100" height="80" rx="10" ry="10" stroke="#000000" fill="#ffffff" style="stroke-width: 2px;"></rect><text class=" djs-label" style="font-family: Arial, sans-serif; font-size: 12px;"><tspan x="6.3046875" y="29.5">Cotejamiento de</tspan><tspan x="33.9921875" y="43.5">acta y </tspan><tspan x="17.3125" y="57.5">presentismo </tspan></text></g><rect x="0" y="0" width="100" height="80" fill="none" stroke="#ffffff" style="stroke-opacity: 0; stroke-width: 15px;" class="djs-hit"></rect><rect x="-6" y="-6" width="112" height="92" fill="none" class="djs-outline"></rect></g></g><g class="djs-group"><g data-element-id="Task_10rk6by" class="djs-element djs-shape" transform="matrix(1,0,0,1,669,80)" style="display: block;"><g class="djs-visual"><rect x="0" y="0" width="100" height="80" rx="10" ry="10" stroke="#000000" fill="#ffffff" style="stroke-width: 2px;"></rect><text class=" djs-label" style="font-family: Arial, sans-serif; font-size: 12px;"><tspan x="19.3125" y="29.5">Registro en </tspan><tspan x="12.9765625" y="43.5">sistema datos </tspan><tspan x="21.9765625" y="57.5">de alumno </tspan></text></g><rect x="0" y="0" width="100" height="80" fill="none" stroke="#ffffff" style="stroke-opacity: 0; stroke-width: 15px;" class="djs-hit"></rect><rect x="-6" y="-6" width="112" height="92" fill="none" class="djs-outline"></rect></g></g><g class="djs-group"><g data-element-id="ExclusiveGateway_088pkx8" transform="matrix(1,0,0,1,818,95)" class="djs-element djs-shape" style="display: block;"><g class="djs-visual"><polygon points="25,0,50,25,25,50,0,25" stroke="#000000" fill="#ffffff" style="stroke-width: 2px;"></polygon><path d="m 16,15 7.42857142857143,9.714285714285715 -7.42857142857143,9.714285714285715 3.428571428571429,0 5.714285714285715,-7.464228571428572 5.714285714285715,7.464228571428572 3.428571428571429,0 -7.42857142857143,-9.714285714285715 7.42857142857143,-9.714285714285715 -3.428571428571429,0 -5.714285714285715,7.464228571428572 -5.714285714285715,-7.464228571428572 -3.428571428571429,0 z" fill="#000000" stroke="#000000" style="stroke-width: 1px;"></path></g><rect x="0" y="0" width="50" height="50" fill="none" stroke="#ffffff" style="stroke-opacity: 0; stroke-width: 15px;" class="djs-hit"></rect><rect x="-6" y="-6" width="62" height="62" fill="none" class="djs-outline"></rect></g></g><g class="djs-group"><g data-element-id="ExclusiveGateway_088pkx8_label" class="djs-element djs-shape" transform="matrix(1,0,0,1,798,145)" style="display: none;"><g class="djs-visual"><text class=" djs-label" style="font-family: Arial, sans-serif; font-size: 11px;"><tspan x="45" y="0"></tspan></text></g><rect x="0" y="0" width="90" height="20" fill="none" stroke="#ffffff" style="stroke-opacity: 0; stroke-width: 15px;" class="djs-hit"></rect><rect x="-6" y="-6" width="102" height="32" fill="none" class="djs-outline"></rect></g></g><g class="djs-group"><g data-element-id="SequenceFlow_0ulin19" class="djs-element djs-connection" style="display: block;"><g class="djs-visual"><path d="m  209,120L260,120 " fill="none" stroke="#000000" style="stroke-width: 2px; stroke-linejoin: round; marker-end: url(#markerSid7kmyoy9);"></path></g><polyline points="209,120 260,120 " fill="none" stroke="#ffffff" style="stroke-opacity: 0; stroke-width: 15px;" class="djs-hit"></polyline><rect x="203" y="114" width="63" height="12" fill="none" class="djs-outline"></rect></g></g><g class="djs-group"><g data-element-id="SequenceFlow_0ulin19_label" class="djs-element djs-shape" transform="matrix(1,0,0,1,190,110)" style="display: none;"><g class="djs-visual"><text class=" djs-label" style="font-family: Arial, sans-serif; font-size: 11px;"><tspan x="45" y="0"></tspan></text></g><rect x="0" y="0" width="90" height="20" fill="none" stroke="#ffffff" style="stroke-opacity: 0; stroke-width: 15px;" class="djs-hit"></rect><rect x="-6" y="-6" width="102" height="32" fill="none" class="djs-outline"></rect></g></g><g class="djs-group"><g data-element-id="SequenceFlow_02g2je0" class="djs-element djs-connection" style="display: block;"><g class="djs-visual"><path d="m  360,120L408,120 " fill="none" stroke="#000000" style="stroke-width: 2px; stroke-linejoin: round; marker-end: url(#markerSid7kmyoy9);"></path></g><polyline points="360,120 408,120 " fill="none" stroke="#ffffff" style="stroke-opacity: 0; stroke-width: 15px;" class="djs-hit"></polyline><rect x="354" y="114" width="60" height="12" fill="none" class="djs-outline"></rect></g></g><g class="djs-group"><g data-element-id="SequenceFlow_02g2je0_label" class="djs-element djs-shape" transform="matrix(1,0,0,1,354,110)" style="display: none;"><g class="djs-visual"><text class=" djs-label" style="font-family: Arial, sans-serif; font-size: 11px;"><tspan x="45" y="0"></tspan></text></g><rect x="0" y="0" width="90" height="20" fill="none" stroke="#ffffff" style="stroke-opacity: 0; stroke-width: 15px;" class="djs-hit"></rect><rect x="-6" y="-6" width="102" height="32" fill="none" class="djs-outline"></rect></g></g><g class="djs-group"><g data-element-id="SequenceFlow_0mvjydq" class="djs-element djs-connection" style="display: block;"><g class="djs-visual"><path d="m  508,120L533,120 " fill="none" stroke="#000000" style="stroke-width: 2px; stroke-linejoin: round; marker-end: url(#markerSid7kmyoy9);"></path></g><polyline points="508,120 533,120 " fill="none" stroke="#ffffff" style="stroke-opacity: 0; stroke-width: 15px;" class="djs-hit"></polyline><rect x="502" y="114" width="37" height="12" fill="none" class="djs-outline"></rect></g></g><g class="djs-group"><g data-element-id="SequenceFlow_0mvjydq_label" class="djs-element djs-shape" transform="matrix(1,0,0,1,513,110)" style="display: none;"><g class="djs-visual"><text class=" djs-label" style="font-family: Arial, sans-serif; font-size: 11px;"><tspan x="45" y="0"></tspan></text></g><rect x="0" y="0" width="90" height="20" fill="none" stroke="#ffffff" style="stroke-opacity: 0; stroke-width: 15px;" class="djs-hit"></rect><rect x="-6" y="-6" width="102" height="32" fill="none" class="djs-outline"></rect></g></g><g class="djs-group"><g data-element-id="SequenceFlow_091s177" class="djs-element djs-connection" style="display: block;"><g class="djs-visual"><path d="m  633,120L669,120 " fill="none" stroke="#000000" style="stroke-width: 2px; stroke-linejoin: round; marker-end: url(#markerSid7kmyoy9);"></path></g><polyline points="633,120 669,120 " fill="none" stroke="#ffffff" style="stroke-opacity: 0; stroke-width: 15px;" class="djs-hit"></polyline><rect x="627" y="114" width="48" height="12" fill="none" class="djs-outline"></rect></g></g><g class="djs-group"><g data-element-id="SequenceFlow_091s177_label" class="djs-element djs-shape" transform="matrix(1,0,0,1,650,110)" style="display: none;"><g class="djs-visual"><text class=" djs-label" style="font-family: Arial, sans-serif; font-size: 11px;"><tspan x="45" y="0"></tspan></text></g><rect x="0" y="0" width="90" height="20" fill="none" stroke="#ffffff" style="stroke-opacity: 0; stroke-width: 15px;" class="djs-hit"></rect><rect x="-6" y="-6" width="102" height="32" fill="none" class="djs-outline"></rect></g></g><g class="djs-group"><g data-element-id="SequenceFlow_1l8pavb" class="djs-element djs-connection" style="display: block;"><g class="djs-visual"><path d="m  1034,120L1093,120 " fill="none" stroke="#000000" style="stroke-width: 2px; stroke-linejoin: round; marker-end: url(#markerSid7kmyoy9);"></path></g><polyline points="1034,120 1093,120 " fill="none" stroke="#ffffff" style="stroke-opacity: 0; stroke-width: 15px;" class="djs-hit"></polyline><rect x="1028" y="114" width="71" height="12" fill="none" class="djs-outline"></rect></g></g><g class="djs-group"><g data-element-id="SequenceFlow_1l8pavb_label" class="djs-element djs-shape" transform="matrix(1,0,0,1,945,110)" style="display: none;"><g class="djs-visual"><text class=" djs-label" style="font-family: Arial, sans-serif; font-size: 11px;"><tspan x="45" y="0"></tspan></text></g><rect x="0" y="0" width="90" height="20" fill="none" stroke="#ffffff" style="stroke-opacity: 0; stroke-width: 15px;" class="djs-hit"></rect><rect x="-6" y="-6" width="102" height="32" fill="none" class="djs-outline"></rect></g></g><g class="djs-group"><g data-element-id="SequenceFlow_1t7xsok" class="djs-element djs-connection" style="display: block;"><g class="djs-visual"><path d="m  769,120L792,120 L792,120 L818,120 " fill="none" stroke="#000000" style="stroke-width: 2px; stroke-linejoin: round; marker-end: url(#markerSid7kmyoy9);"></path></g><polyline points="769,120 792,120 792,120 818,120 " fill="none" stroke="#ffffff" style="stroke-opacity: 0; stroke-width: 15px;" class="djs-hit"></polyline><rect x="763" y="114" width="61" height="12" fill="none" class="djs-outline"></rect></g></g><g class="djs-group"><g data-element-id="SequenceFlow_1t7xsok_label" class="djs-element djs-shape" transform="matrix(1,0,0,1,815,152)" style="display: none;"><g class="djs-visual"><text class=" djs-label" style="font-family: Arial, sans-serif; font-size: 11px;"><tspan x="45" y="0"></tspan></text></g><rect x="0" y="0" width="90" height="20" fill="none" stroke="#ffffff" style="stroke-opacity: 0; stroke-width: 15px;" class="djs-hit"></rect><rect x="-6" y="-6" width="102" height="32" fill="none" class="djs-outline"></rect></g></g><g class="djs-group"><g data-element-id="SequenceFlow_1lmubar" class="djs-element djs-connection" style="display: block;"><g class="djs-visual"><path d="m  843,145L843,217 L943,217 " fill="none" stroke="#000000" style="stroke-width: 2px; stroke-linejoin: round; marker-end: url(#markerSid7kmyoy9);"></path></g><polyline points="843,145 843,217 943,217 " fill="none" stroke="#ffffff" style="stroke-opacity: 0; stroke-width: 15px;" class="djs-hit"></polyline><rect x="837" y="139" width="112" height="84" fill="none" class="djs-outline"></rect></g></g><g class="djs-group"><g data-element-id="SequenceFlow_1lmubar_label" class="djs-element djs-shape" transform="matrix(1,0,0,1,888,200)" style="display: none;"><g class="djs-visual"><text class=" djs-label" style="font-family: Arial, sans-serif; font-size: 11px;"><tspan x="45" y="0"></tspan></text></g><rect x="0" y="0" width="90" height="20" fill="none" stroke="#ffffff" style="stroke-opacity: 0; stroke-width: 15px;" class="djs-hit"></rect><rect x="-6" y="-6" width="102" height="32" fill="none" class="djs-outline"></rect></g></g><g class="djs-group"><g data-element-id="SequenceFlow_0p4ak72" class="djs-element djs-connection" style="display: block;"><g class="djs-visual"><path d="m  1043,217L1068,217 L1068,120 L1093,120 " fill="none" stroke="#000000" style="stroke-width: 2px; stroke-linejoin: round; marker-end: url(#markerSid7kmyoy9);"></path></g><polyline points="1043,217 1068,217 1068,120 1093,120 " fill="none" stroke="#ffffff" style="stroke-opacity: 0; stroke-width: 15px;" class="djs-hit"></polyline><rect x="1037" y="114" width="62" height="109" fill="none" class="djs-outline"></rect></g></g><g class="djs-group"><g data-element-id="SequenceFlow_0p4ak72_label" class="djs-element djs-shape" transform="matrix(1,0,0,1,1023,159)" style="display: none;"><g class="djs-visual"><text class=" djs-label" style="font-family: Arial, sans-serif; font-size: 11px;"><tspan x="45" y="0"></tspan></text></g><rect x="0" y="0" width="90" height="20" fill="none" stroke="#ffffff" style="stroke-opacity: 0; stroke-width: 15px;" class="djs-hit"></rect><rect x="-6" y="-6" width="102" height="32" fill="none" class="djs-outline"></rect></g></g><g class="djs-group"><g data-element-id="SequenceFlow_121ig7k" class="djs-element djs-connection" style="display: block;"><g class="djs-visual"><path d="m  868,120L934,120 " fill="none" stroke="#000000" style="stroke-width: 2px; stroke-linejoin: round; marker-end: url(#markerSid7kmyoy9);"></path></g><polyline points="868,120 934,120 " fill="none" stroke="#ffffff" style="stroke-opacity: 0; stroke-width: 15px;" class="djs-hit"></polyline><rect x="862" y="114" width="78" height="12" fill="none" class="djs-outline"></rect></g></g><g class="djs-group"><g data-element-id="SequenceFlow_121ig7k_label" class="djs-element djs-shape" transform="matrix(1,0,0,1,896,171)" style="display: none;"><g class="djs-visual"><text class=" djs-label" style="font-family: Arial, sans-serif; font-size: 11px;"><tspan x="45" y="0"></tspan></text></g><rect x="0" y="0" width="90" height="20" fill="none" stroke="#ffffff" style="stroke-opacity: 0; stroke-width: 15px;" class="djs-hit"></rect><rect x="-6" y="-6" width="102" height="32" fill="none" class="djs-outline"></rect></g></g></g></g><g class="djs-group" xmlns="http://www.w3.org/2000/svg"><g data-element-id="Participant_0n3i91t" class="djs-element djs-shape" transform="matrix(1,0,0,1,123,317)" style="display: block;"><g class="djs-visual"><rect x="0" y="0" width="1102" height="253" rx="0" ry="0" stroke="#000000" fill="#ffffff" style="stroke-width: 2px;"></rect><polyline points="30,0 30,253 " fill="none" stroke="#000000" style="stroke-width: 2px;"></polyline><text class=" djs-label" transform="matrix(0,-1,1,0,0,253)" style="font-family: Arial, sans-serif; font-size: 12px;"><tspan x="126.5" y="15"></tspan></text></g><rect x="0" y="0" width="1102" height="253" fill="none" stroke="#ffffff" style="stroke-opacity: 0; stroke-width: 15px;" class="djs-hit"></rect><rect x="-6" y="-6" width="1114" height="265" fill="none" class="djs-outline"></rect></g></g></svg>